<svg id="svg" version="1.1" xmlns="http://www.w3.org/2000/svg" xmlns:xlink="http://www.w3.org/1999/xlink" width="400" height="400" viewBox="0, 0, 400,400"><g id="svgg"><path id="path0" d="M94.274 125.859 C 94.123 126.010,94.000 159.223,94.000 199.667 L 94.000 273.200 138.809 273.200 L 183.618 273.200 183.509 265.700 L 183.400 258.200 148.400 258.000 L 113.400 257.800 113.200 191.800 L 113.000 125.800 103.774 125.693 C 98.699 125.634,94.424 125.709,94.274 125.859 M206.400 199.367 L 206.400 273.200 235.125 273.200 C 266.996 273.200,268.742 273.101,276.900 270.840 C 290.699 267.014,300.582 257.873,304.560 245.258 C 311.072 224.604,302.314 203.631,284.488 197.191 C 280.829 195.870,280.800 195.235,284.320 193.591 C 294.090 189.029,301.250 178.961,302.422 168.136 C 304.510 148.852,294.308 133.485,276.000 128.340 C 268.075 126.113,265.194 125.932,234.500 125.724 L 206.400 125.535 206.400 199.367 M262.600 141.772 C 271.882 143.040,277.511 146.427,280.922 152.800 C 284.497 159.480,284.344 170.056,280.578 176.636 C 278.528 180.217,271.742 186.000,269.590 186.000 C 269.182 186.000,268.755 186.149,268.642 186.332 C 268.530 186.514,267.394 186.884,266.119 187.153 C 264.843 187.423,263.260 187.841,262.600 188.084 C 260.865 188.720,227.185 189.034,226.046 188.424 C 225.084 187.910,224.673 143.731,225.614 141.974 C 226.149 140.973,255.578 140.813,262.600 141.772 M263.800 204.419 C 271.568 205.308,276.609 207.454,280.872 211.688 C 289.454 220.210,289.842 239.261,281.623 248.492 C 278.562 251.931,272.407 255.755,268.600 256.583 C 261.096 258.215,226.421 258.734,225.614 257.226 C 225.341 256.716,225.200 247.780,225.200 231.000 C 225.200 214.220,225.341 205.284,225.614 204.774 C 226.094 203.877,256.592 203.594,263.800 204.419 " stroke="none" fill="#fafafb" fill-rule="evenodd"></path><path id="path1" d="M178.300 0.275 C 176.375 0.361,174.800 0.604,174.800 0.816 C 174.800 1.027,173.540 1.200,172.000 1.200 C 170.400 1.200,169.200 1.371,169.200 1.600 C 169.200 1.822,168.133 2.000,166.800 2.000 C 165.467 2.000,164.400 2.178,164.400 2.400 C 164.400 2.620,163.500 2.800,162.400 2.800 C 161.300 2.800,160.400 2.980,160.400 3.200 C 160.400 3.420,159.590 3.600,158.600 3.600 C 157.610 3.600,156.800 3.780,156.800 4.000 C 156.800 4.220,156.091 4.400,155.224 4.400 C 154.357 4.400,153.536 4.580,153.400 4.800 C 153.264 5.020,152.454 5.200,151.600 5.200 C 150.746 5.200,149.936 5.380,149.800 5.600 C 149.664 5.820,149.023 6.000,148.376 6.000 C 147.729 6.000,147.200 6.180,147.200 6.400 C 147.200 6.620,146.480 6.800,145.600 6.800 C 144.720 6.800,144.000 6.980,144.000 7.200 C 144.000 7.420,143.550 7.600,143.000 7.600 C 142.450 7.600,142.000 7.780,142.000 8.000 C 142.000 8.220,141.415 8.397,140.700 8.393 C 139.307 8.386,132.688 10.401,132.467 10.900 C 132.393 11.065,131.808 11.200,131.167 11.200 C 130.525 11.200,130.000 11.380,130.000 11.600 C 130.000 11.820,129.645 12.000,129.212 12.000 C 128.779 12.000,127.783 12.360,127.000 12.800 C 126.217 13.240,125.221 13.600,124.788 13.600 C 124.355 13.600,124.000 13.780,124.000 14.000 C 124.000 14.220,123.640 14.400,123.200 14.400 C 122.760 14.400,122.400 14.580,122.400 14.800 C 122.400 15.020,121.860 15.200,121.200 15.200 C 120.540 15.200,120.000 15.380,120.000 15.600 C 120.000 15.820,119.640 16.000,119.200 16.000 C 118.760 16.000,118.400 16.180,118.400 16.400 C 118.400 16.620,118.040 16.800,117.600 16.800 C 117.160 16.800,116.800 16.980,116.800 17.200 C 116.800 17.420,116.440 17.600,116.000 17.600 C 115.560 17.600,115.200 17.780,115.200 18.000 C 115.200 18.220,114.840 18.400,114.400 18.400 C 113.960 18.400,113.600 18.580,113.600 18.800 C 113.600 19.020,113.150 19.200,112.600 19.200 C 112.050 19.200,111.600 19.380,111.600 19.600 C 111.600 19.820,111.240 20.000,110.800 20.000 C 110.360 20.000,110.000 20.180,110.000 20.400 C 110.000 20.620,109.680 20.800,109.288 20.800 C 108.897 20.800,108.317 21.160,108.000 21.600 C 107.683 22.040,107.103 22.400,106.712 22.400 C 106.320 22.400,106.000 22.580,106.000 22.800 C 106.000 23.020,105.640 23.200,105.200 23.200 C 104.760 23.200,104.400 23.380,104.400 23.600 C 104.400 23.820,104.040 24.000,103.600 24.000 C 103.160 24.000,102.800 24.180,102.800 24.400 C 102.800 24.620,102.440 24.800,102.000 24.800 C 101.560 24.800,101.200 24.980,101.200 25.200 C 101.200 25.420,101.065 25.564,100.900 25.521 C 100.354 25.377,98.800 26.047,98.800 26.427 C 98.800 26.632,98.440 26.800,98.000 26.800 C 97.560 26.800,97.200 26.980,97.200 27.200 C 97.200 27.420,96.952 27.600,96.649 27.600 C 96.346 27.600,95.871 27.873,95.594 28.207 C 95.317 28.541,94.440 29.117,93.645 29.487 C 92.850 29.857,91.909 30.483,91.553 30.880 C 91.197 31.276,90.652 31.600,90.341 31.600 C 90.031 31.600,89.517 31.960,89.200 32.400 C 88.883 32.840,88.343 33.200,88.000 33.200 C 87.657 33.200,87.117 33.560,86.800 34.000 C 86.483 34.440,85.975 34.800,85.672 34.800 C 85.369 34.800,84.617 35.340,84.000 36.000 C 83.383 36.660,82.663 37.200,82.400 37.200 C 82.137 37.200,81.417 37.740,80.800 38.400 C 80.183 39.060,79.463 39.600,79.200 39.600 C 78.937 39.600,78.217 40.140,77.600 40.800 C 76.983 41.460,76.287 42.000,76.053 42.000 C 75.818 42.000,74.997 42.630,74.227 43.400 C 73.457 44.170,72.637 44.800,72.405 44.800 C 72.173 44.800,70.993 45.790,69.783 47.000 C 68.573 48.210,67.433 49.200,67.251 49.200 C 67.068 49.200,65.047 51.078,62.759 53.374 C 57.713 58.438,58.438 57.713,53.374 62.759 C 51.078 65.047,49.200 67.068,49.200 67.251 C 49.200 67.433,48.210 68.573,47.000 69.783 C 45.790 70.993,44.800 72.173,44.800 72.405 C 44.800 72.637,44.170 73.457,43.400 74.227 C 42.630 74.997,42.000 75.818,42.000 76.053 C 42.000 76.287,41.460 76.983,40.800 77.600 C 40.140 78.217,39.600 78.937,39.600 79.200 C 39.600 79.463,39.060 80.183,38.400 80.800 C 37.740 81.417,37.200 82.137,37.200 82.400 C 37.200 82.663,36.660 83.383,36.000 84.000 C 35.340 84.617,34.800 85.369,34.800 85.672 C 34.800 85.975,34.440 86.483,34.000 86.800 C 33.560 87.117,33.200 87.657,33.200 88.000 C 33.200 88.343,32.840 88.883,32.400 89.200 C 31.960 89.517,31.600 90.031,31.600 90.341 C 31.600 90.652,31.276 91.197,30.880 91.553 C 30.483 91.909,29.857 92.850,29.487 93.645 C 29.117 94.440,28.541 95.317,28.207 95.594 C 27.873 95.871,27.600 96.346,27.600 96.649 C 27.600 96.952,27.420 97.200,27.200 97.200 C 26.980 97.200,26.800 97.560,26.800 98.000 C 26.800 98.440,26.632 98.800,26.427 98.800 C 26.047 98.800,25.377 100.354,25.521 100.900 C 25.564 101.065,25.420 101.200,25.200 101.200 C 24.980 101.200,24.800 101.560,24.800 102.000 C 24.800 102.440,24.620 102.800,24.400 102.800 C 24.180 102.800,24.000 103.160,24.000 103.600 C 24.000 104.040,23.820 104.400,23.600 104.400 C 23.380 104.400,23.200 104.760,23.200 105.200 C 23.200 105.640,23.020 106.000,22.800 106.000 C 22.580 106.000,22.400 106.320,22.400 106.712 C 22.400 107.103,22.040 107.683,21.600 108.000 C 21.160 108.317,20.800 108.897,20.800 109.288 C 20.800 109.680,20.620 110.000,20.400 110.000 C 20.180 110.000,20.000 110.360,20.000 110.800 C 20.000 111.240,19.820 111.600,19.600 111.600 C 19.380 111.600,19.200 112.050,19.200 112.600 C 19.200 113.150,19.020 113.600,18.800 113.600 C 18.580 113.600,18.400 113.960,18.400 114.400 C 18.400 114.840,18.220 115.200,18.000 115.200 C 17.780 115.200,17.600 115.560,17.600 116.000 C 17.600 116.440,17.420 116.800,17.200 116.800 C 16.980 116.800,16.800 117.160,16.800 117.600 C 16.800 118.040,16.620 118.400,16.400 118.400 C 16.180 118.400,16.000 118.760,16.000 119.200 C 16.000 119.640,15.820 120.000,15.600 120.000 C 15.380 120.000,15.200 120.540,15.200 121.200 C 15.200 121.860,15.020 122.400,14.800 122.400 C 14.580 122.400,14.400 122.760,14.400 123.200 C 14.400 123.640,14.220 124.000,14.000 124.000 C 13.780 124.000,13.600 124.355,13.600 124.788 C 13.600 125.221,13.240 126.217,12.800 127.000 C 12.360 127.783,12.000 128.779,12.000 129.212 C 12.000 129.645,11.820 130.000,11.600 130.000 C 11.380 130.000,11.200 130.525,11.200 131.167 C 11.200 131.808,11.065 132.393,10.900 132.467 C 10.401 132.688,8.386 139.307,8.393 140.700 C 8.397 141.415,8.220 142.000,8.000 142.000 C 7.780 142.000,7.600 142.450,7.600 143.000 C 7.600 143.550,7.420 144.000,7.200 144.000 C 6.980 144.000,6.800 144.720,6.800 145.600 C 6.800 146.480,6.620 147.200,6.400 147.200 C 6.180 147.200,6.000 147.729,6.000 148.376 C 6.000 149.023,5.820 149.664,5.600 149.800 C 5.380 149.936,5.200 150.746,5.200 151.600 C 5.200 152.454,5.020 153.264,4.800 153.400 C 4.580 153.536,4.400 154.357,4.400 155.224 C 4.400 156.091,4.220 156.800,4.000 156.800 C 3.780 156.800,3.600 157.610,3.600 158.600 C 3.600 159.590,3.420 160.400,3.200 160.400 C 2.980 160.400,2.800 161.300,2.800 162.400 C 2.800 163.500,2.620 164.400,2.400 164.400 C 2.178 164.400,2.000 165.467,2.000 166.800 C 2.000 168.133,1.822 169.200,1.600 169.200 C 1.372 169.200,1.200 170.389,1.200 171.967 C 1.200 173.824,1.036 174.788,0.700 174.900 C -0.032 175.144,-0.032 224.856,0.700 225.100 C 1.036 225.212,1.200 226.176,1.200 228.033 C 1.200 229.611,1.372 230.800,1.600 230.800 C 1.822 230.800,2.000 231.867,2.000 233.200 C 2.000 234.533,2.178 235.600,2.400 235.600 C 2.620 235.600,2.800 236.500,2.800 237.600 C 2.800 238.700,2.980 239.600,3.200 239.600 C 3.420 239.600,3.600 240.410,3.600 241.400 C 3.600 242.390,3.780 243.200,4.000 243.200 C 4.220 243.200,4.400 243.909,4.400 244.776 C 4.400 245.643,4.580 246.464,4.800 246.600 C 5.020 246.736,5.200 247.546,5.200 248.400 C 5.200 249.254,5.380 250.064,5.600 250.200 C 5.820 250.336,6.000 250.977,6.000 251.624 C 6.000 252.271,6.180 252.800,6.400 252.800 C 6.620 252.800,6.800 253.520,6.800 254.400 C 6.800 255.280,6.980 256.000,7.200 256.000 C 7.420 256.000,7.600 256.540,7.600 257.200 C 7.600 257.860,7.780 258.400,8.000 258.400 C 8.220 258.400,8.397 258.895,8.393 259.500 C 8.385 260.745,10.440 267.329,10.900 267.533 C 11.065 267.607,11.200 268.192,11.200 268.833 C 11.200 269.475,11.380 270.000,11.600 270.000 C 11.820 270.000,12.000 270.355,12.000 270.788 C 12.000 271.221,12.360 272.217,12.800 273.000 C 13.240 273.783,13.600 274.779,13.600 275.212 C 13.600 275.645,13.780 276.000,14.000 276.000 C 14.220 276.000,14.400 276.360,14.400 276.800 C 14.400 277.240,14.580 277.600,14.800 277.600 C 15.020 277.600,15.200 278.140,15.200 278.800 C 15.200 279.460,15.380 280.000,15.600 280.000 C 15.820 280.000,16.000 280.360,16.000 280.800 C 16.000 281.240,16.180 281.600,16.400 281.600 C 16.620 281.600,16.800 281.960,16.800 282.400 C 16.800 282.840,16.980 283.200,17.200 283.200 C 17.420 283.200,17.600 283.560,17.600 284.000 C 17.600 284.440,17.780 284.800,18.000 284.800 C 18.220 284.800,18.400 285.160,18.400 285.600 C 18.400 286.040,18.580 286.400,18.800 286.400 C 19.020 286.400,19.200 286.850,19.200 287.400 C 19.200 287.950,19.380 288.400,19.600 288.400 C 19.820 288.400,20.000 288.760,20.000 289.200 C 20.000 289.640,20.180 290.000,20.400 290.000 C 20.620 290.000,20.800 290.320,20.800 290.712 C 20.800 291.103,21.160 291.683,21.600 292.000 C 22.040 292.317,22.400 292.897,22.400 293.288 C 22.400 293.680,22.580 294.000,22.800 294.000 C 23.020 294.000,23.200 294.360,23.200 294.800 C 23.200 295.240,23.380 295.600,23.600 295.600 C 23.820 295.600,24.000 295.960,24.000 296.400 C 24.000 296.840,24.180 297.200,24.400 297.200 C 24.620 297.200,24.800 297.560,24.800 298.000 C 24.800 298.440,24.980 298.800,25.200 298.800 C 25.420 298.800,25.564 298.935,25.521 299.100 C 25.377 299.646,26.047 301.200,26.427 301.200 C 26.632 301.200,26.800 301.560,26.800 302.000 C 26.800 302.440,26.980 302.800,27.200 302.800 C 27.420 302.800,27.600 303.048,27.600 303.351 C 27.600 303.654,27.873 304.129,28.207 304.406 C 28.541 304.683,29.117 305.560,29.487 306.355 C 29.857 307.150,30.483 308.091,30.880 308.447 C 31.276 308.803,31.600 309.348,31.600 309.659 C 31.600 309.969,31.960 310.483,32.400 310.800 C 32.840 311.117,33.200 311.657,33.200 312.000 C 33.200 312.343,33.560 312.883,34.000 313.200 C 34.440 313.517,34.800 314.025,34.800 314.328 C 34.800 314.631,35.340 315.383,36.000 316.000 C 36.660 316.617,37.200 317.337,37.200 317.600 C 37.200 317.863,37.740 318.583,38.400 319.200 C 39.060 319.817,39.600 320.537,39.600 320.800 C 39.600 321.063,40.140 321.783,40.800 322.400 C 41.460 323.017,42.000 323.765,42.000 324.064 C 42.000 324.363,42.626 325.146,43.391 325.804 C 44.157 326.462,44.787 327.229,44.791 327.509 C 44.796 327.788,45.790 329.007,47.000 330.217 C 48.210 331.427,49.200 332.591,49.200 332.804 C 49.200 333.017,51.109 335.064,53.441 337.354 C 58.561 342.381,57.619 341.439,62.646 346.559 C 64.936 348.891,66.983 350.800,67.196 350.800 C 67.409 350.800,68.573 351.790,69.783 353.000 C 70.993 354.210,72.181 355.200,72.423 355.200 C 72.665 355.200,73.554 355.920,74.400 356.800 C 75.246 357.680,76.123 358.400,76.350 358.400 C 76.578 358.400,77.214 358.850,77.764 359.400 C 78.314 359.950,78.970 360.400,79.221 360.400 C 79.473 360.400,80.183 360.940,80.800 361.600 C 81.417 362.260,82.137 362.800,82.400 362.800 C 82.663 362.800,83.383 363.340,84.000 364.000 C 84.617 364.660,85.369 365.200,85.672 365.200 C 85.975 365.200,86.483 365.560,86.800 366.000 C 87.117 366.440,87.657 366.800,88.000 366.800 C 88.343 366.800,88.883 367.160,89.200 367.600 C 89.517 368.040,90.031 368.400,90.341 368.400 C 90.652 368.400,91.197 368.724,91.553 369.120 C 91.909 369.517,92.850 370.143,93.645 370.513 C 94.440 370.883,95.317 371.459,95.594 371.793 C 95.871 372.127,96.346 372.400,96.649 372.400 C 96.952 372.400,97.200 372.580,97.200 372.800 C 97.200 373.020,97.560 373.200,98.000 373.200 C 98.440 373.200,98.800 373.368,98.800 373.573 C 98.800 373.953,100.354 374.623,100.900 374.479 C 101.065 374.436,101.200 374.580,101.200 374.800 C 101.200 375.020,101.560 375.200,102.000 375.200 C 102.440 375.200,102.800 375.380,102.800 375.600 C 102.800 375.820,103.160 376.000,103.600 376.000 C 104.040 376.000,104.400 376.180,104.400 376.400 C 104.400 376.620,104.760 376.800,105.200 376.800 C 105.640 376.800,106.000 376.980,106.000 377.200 C 106.000 377.420,106.320 377.600,106.712 377.600 C 107.103 377.600,107.683 377.960,108.000 378.400 C 108.317 378.840,108.897 379.200,109.288 379.200 C 109.680 379.200,110.000 379.380,110.000 379.600 C 110.000 379.820,110.360 380.000,110.800 380.000 C 111.240 380.000,111.600 380.180,111.600 380.400 C 111.600 380.620,112.050 380.800,112.600 380.800 C 113.150 380.800,113.600 380.980,113.600 381.200 C 113.600 381.420,113.960 381.600,114.400 381.600 C 114.840 381.600,115.200 381.780,115.200 382.000 C 115.200 382.220,115.560 382.400,116.000 382.400 C 116.440 382.400,116.800 382.580,116.800 382.800 C 116.800 383.020,117.160 383.200,117.600 383.200 C 118.040 383.200,118.400 383.380,118.400 383.600 C 118.400 383.820,118.760 384.000,119.200 384.000 C 119.640 384.000,120.000 384.180,120.000 384.400 C 120.000 384.620,120.540 384.800,121.200 384.800 C 121.860 384.800,122.400 384.980,122.400 385.200 C 122.400 385.420,122.760 385.600,123.200 385.600 C 123.640 385.600,124.000 385.780,124.000 386.000 C 124.000 386.220,124.355 386.400,124.788 386.400 C 125.221 386.400,126.217 386.760,127.000 387.200 C 127.783 387.640,128.779 388.000,129.212 388.000 C 129.645 388.000,130.000 388.180,130.000 388.400 C 130.000 388.620,130.525 388.800,131.167 388.800 C 131.808 388.800,132.393 388.941,132.467 389.113 C 132.687 389.630,139.151 391.600,140.628 391.600 C 141.382 391.600,142.000 391.780,142.000 392.000 C 142.000 392.220,142.450 392.400,143.000 392.400 C 143.550 392.400,144.000 392.580,144.000 392.800 C 144.000 393.020,144.720 393.200,145.600 393.200 C 146.480 393.200,147.200 393.380,147.200 393.600 C 147.200 393.820,147.729 394.000,148.376 394.000 C 149.023 394.000,149.664 394.180,149.800 394.400 C 149.936 394.620,150.746 394.800,151.600 394.800 C 152.454 394.800,153.264 394.980,153.400 395.200 C 153.536 395.420,154.357 395.600,155.224 395.600 C 156.091 395.600,156.800 395.780,156.800 396.000 C 156.800 396.220,157.610 396.400,158.600 396.400 C 159.590 396.400,160.400 396.580,160.400 396.800 C 160.400 397.020,161.300 397.200,162.400 397.200 C 163.500 397.200,164.400 397.380,164.400 397.600 C 164.400 397.822,165.467 398.000,166.800 398.000 C 168.133 398.000,169.200 398.178,169.200 398.400 C 169.200 398.628,170.389 398.800,171.967 398.800 C 173.824 398.800,174.788 398.964,174.900 399.300 C 175.144 400.032,224.856 400.032,225.100 399.300 C 225.212 398.964,226.176 398.800,228.033 398.800 C 229.611 398.800,230.800 398.628,230.800 398.400 C 230.800 398.178,231.867 398.000,233.200 398.000 C 234.533 398.000,235.600 397.822,235.600 397.600 C 235.600 397.380,236.500 397.200,237.600 397.200 C 238.700 397.200,239.600 397.020,239.600 396.800 C 239.600 396.580,240.410 396.400,241.400 396.400 C 242.390 396.400,243.200 396.220,243.200 396.000 C 243.200 395.780,243.909 395.600,244.776 395.600 C 245.643 395.600,246.464 395.420,246.600 395.200 C 246.736 394.980,247.546 394.800,248.400 394.800 C 249.254 394.800,250.064 394.620,250.200 394.400 C 250.336 394.180,250.977 394.000,251.624 394.000 C 252.271 394.000,252.800 393.820,252.800 393.600 C 252.800 393.380,253.520 393.200,254.400 393.200 C 255.280 393.200,256.000 393.020,256.000 392.800 C 256.000 392.580,256.540 392.400,257.200 392.400 C 257.860 392.400,258.400 392.220,258.400 392.000 C 258.400 391.780,258.928 391.600,259.572 391.600 C 260.901 391.600,267.330 389.592,267.533 389.113 C 267.607 388.941,268.192 388.800,268.833 388.800 C 269.475 388.800,270.000 388.620,270.000 388.400 C 270.000 388.180,270.355 388.000,270.788 388.000 C 271.221 388.000,272.217 387.640,273.000 387.200 C 273.783 386.760,274.779 386.400,275.212 386.400 C 275.645 386.400,276.000 386.220,276.000 386.000 C 276.000 385.780,276.360 385.600,276.800 385.600 C 277.240 385.600,277.600 385.420,277.600 385.200 C 277.600 384.980,278.140 384.800,278.800 384.800 C 279.460 384.800,280.000 384.620,280.000 384.400 C 280.000 384.180,280.360 384.000,280.800 384.000 C 281.240 384.000,281.600 383.820,281.600 383.600 C 281.600 383.380,281.960 383.200,282.400 383.200 C 282.840 383.200,283.200 383.020,283.200 382.800 C 283.200 382.580,283.560 382.400,284.000 382.400 C 284.440 382.400,284.800 382.220,284.800 382.000 C 284.800 381.780,285.160 381.600,285.600 381.600 C 286.040 381.600,286.400 381.420,286.400 381.200 C 286.400 380.980,286.850 380.800,287.400 380.800 C 287.950 380.800,288.400 380.620,288.400 380.400 C 288.400 380.180,288.760 380.000,289.200 380.000 C 289.640 380.000,290.000 379.820,290.000 379.600 C 290.000 379.380,290.320 379.200,290.712 379.200 C 291.103 379.200,291.683 378.840,292.000 378.400 C 292.317 377.960,292.897 377.600,293.288 377.600 C 293.680 377.600,294.000 377.420,294.000 377.200 C 294.000 376.980,294.360 376.800,294.800 376.800 C 295.240 376.800,295.600 376.620,295.600 376.400 C 295.600 376.180,295.960 376.000,296.400 376.000 C 296.840 376.000,297.200 375.820,297.200 375.600 C 297.200 375.380,297.464 375.200,297.786 375.200 C 298.599 375.200,301.200 373.924,301.200 373.526 C 301.200 373.347,301.560 373.200,302.000 373.200 C 302.440 373.200,302.800 373.020,302.800 372.800 C 302.800 372.580,303.036 372.400,303.325 372.400 C 303.613 372.400,304.198 372.085,304.625 371.700 C 305.051 371.315,305.940 370.731,306.600 370.403 C 307.260 370.074,308.091 369.489,308.447 369.103 C 308.803 368.716,309.348 368.400,309.659 368.400 C 309.969 368.400,310.483 368.040,310.800 367.600 C 311.117 367.160,311.657 366.800,312.000 366.800 C 312.343 366.800,312.883 366.440,313.200 366.000 C 313.517 365.560,314.025 365.200,314.328 365.200 C 314.631 365.200,315.383 364.660,316.000 364.000 C 316.617 363.340,317.337 362.800,317.600 362.800 C 317.863 362.800,318.583 362.260,319.200 361.600 C 319.817 360.940,320.527 360.400,320.779 360.400 C 321.030 360.400,321.686 359.950,322.236 359.400 C 322.786 358.850,323.464 358.400,323.742 358.400 C 324.020 358.400,324.867 357.684,325.624 356.809 C 326.381 355.934,327.229 355.214,327.509 355.209 C 327.788 355.204,329.007 354.210,330.217 353.000 C 331.427 351.790,332.581 350.800,332.782 350.800 C 332.982 350.800,335.004 348.919,337.273 346.619 C 342.279 341.548,341.548 342.279,346.619 337.273 C 348.919 335.004,350.800 332.982,350.800 332.782 C 350.800 332.581,351.790 331.427,353.000 330.217 C 354.210 329.007,355.204 327.788,355.209 327.509 C 355.214 327.229,355.934 326.381,356.809 325.624 C 357.684 324.867,358.400 324.020,358.400 323.742 C 358.400 323.464,358.850 322.786,359.400 322.236 C 359.950 321.686,360.400 321.030,360.400 320.779 C 360.400 320.527,360.940 319.817,361.600 319.200 C 362.260 318.583,362.800 317.863,362.800 317.600 C 362.800 317.337,363.340 316.617,364.000 316.000 C 364.660 315.383,365.200 314.631,365.200 314.328 C 365.200 314.025,365.560 313.517,366.000 313.200 C 366.440 312.883,366.800 312.343,366.800 312.000 C 366.800 311.657,367.160 311.117,367.600 310.800 C 368.040 310.483,368.400 309.969,368.400 309.659 C 368.400 309.348,368.716 308.803,369.103 308.447 C 369.489 308.091,370.074 307.260,370.403 306.600 C 370.731 305.940,371.315 305.051,371.700 304.625 C 372.085 304.198,372.400 303.613,372.400 303.325 C 372.400 303.036,372.580 302.800,372.800 302.800 C 373.020 302.800,373.200 302.440,373.200 302.000 C 373.200 301.560,373.347 301.200,373.526 301.200 C 373.924 301.200,375.200 298.599,375.200 297.786 C 375.200 297.464,375.380 297.200,375.600 297.200 C 375.820 297.200,376.000 296.840,376.000 296.400 C 376.000 295.960,376.180 295.600,376.400 295.600 C 376.620 295.600,376.800 295.240,376.800 294.800 C 376.800 294.360,376.980 294.000,377.200 294.000 C 377.420 294.000,377.600 293.680,377.600 293.288 C 377.600 292.897,377.960 292.317,378.400 292.000 C 378.840 291.683,379.200 291.103,379.200 290.712 C 379.200 290.320,379.380 290.000,379.600 290.000 C 379.820 290.000,380.000 289.640,380.000 289.200 C 380.000 288.760,380.180 288.400,380.400 288.400 C 380.620 288.400,380.800 287.950,380.800 287.400 C 380.800 286.850,380.980 286.400,381.200 286.400 C 381.420 286.400,381.600 286.040,381.600 285.600 C 381.600 285.160,381.780 284.800,382.000 284.800 C 382.220 284.800,382.400 284.440,382.400 284.000 C 382.400 283.560,382.580 283.200,382.800 283.200 C 383.020 283.200,383.200 282.840,383.200 282.400 C 383.200 281.960,383.380 281.600,383.600 281.600 C 383.820 281.600,384.000 281.240,384.000 280.800 C 384.000 280.360,384.180 280.000,384.400 280.000 C 384.620 280.000,384.800 279.460,384.800 278.800 C 384.800 278.140,384.980 277.600,385.200 277.600 C 385.420 277.600,385.600 277.240,385.600 276.800 C 385.600 276.360,385.780 276.000,386.000 276.000 C 386.220 276.000,386.400 275.645,386.400 275.212 C 386.400 274.779,386.760 273.783,387.200 273.000 C 387.640 272.217,388.000 271.221,388.000 270.788 C 388.000 270.355,388.180 270.000,388.400 270.000 C 388.620 270.000,388.800 269.475,388.800 268.833 C 388.800 268.192,388.941 267.607,389.113 267.533 C 389.592 267.330,391.600 260.901,391.600 259.572 C 391.600 258.928,391.780 258.400,392.000 258.400 C 392.220 258.400,392.400 257.860,392.400 257.200 C 392.400 256.540,392.580 256.000,392.800 256.000 C 393.020 256.000,393.200 255.280,393.200 254.400 C 393.200 253.520,393.380 252.800,393.600 252.800 C 393.820 252.800,394.000 252.271,394.000 251.624 C 394.000 250.977,394.180 250.336,394.400 250.200 C 394.620 250.064,394.800 249.254,394.800 248.400 C 394.800 247.546,394.980 246.736,395.200 246.600 C 395.420 246.464,395.600 245.643,395.600 244.776 C 395.600 243.909,395.780 243.200,396.000 243.200 C 396.220 243.200,396.400 242.390,396.400 241.400 C 396.400 240.410,396.580 239.600,396.800 239.600 C 397.020 239.600,397.200 238.700,397.200 237.600 C 397.200 236.500,397.380 235.600,397.600 235.600 C 397.822 235.600,398.000 234.533,398.000 233.200 C 398.000 231.867,398.178 230.800,398.400 230.800 C 398.628 230.800,398.800 229.611,398.800 228.033 C 398.800 226.176,398.964 225.212,399.300 225.100 C 399.693 224.969,399.800 219.591,399.800 200.000 C 399.800 180.409,399.693 175.031,399.300 174.900 C 398.964 174.788,398.800 173.824,398.800 171.967 C 398.800 170.389,398.628 169.200,398.400 169.200 C 398.178 169.200,398.000 168.133,398.000 166.800 C 398.000 165.467,397.822 164.400,397.600 164.400 C 397.380 164.400,397.200 163.500,397.200 162.400 C 397.200 161.300,397.020 160.400,396.800 160.400 C 396.580 160.400,396.400 159.590,396.400 158.600 C 396.400 157.610,396.220 156.800,396.000 156.800 C 395.780 156.800,395.600 156.091,395.600 155.224 C 395.600 154.357,395.420 153.536,395.200 153.400 C 394.980 153.264,394.800 152.454,394.800 151.600 C 394.800 150.746,394.620 149.936,394.400 149.800 C 394.180 149.664,394.000 149.023,394.000 148.376 C 394.000 147.729,393.820 147.200,393.600 147.200 C 393.380 147.200,393.200 146.480,393.200 145.600 C 393.200 144.720,393.020 144.000,392.800 144.000 C 392.580 144.000,392.400 143.550,392.400 143.000 C 392.400 142.450,392.220 142.000,392.000 142.000 C 391.780 142.000,391.600 141.382,391.600 140.628 C 391.600 139.151,389.630 132.687,389.113 132.467 C 388.941 132.393,388.800 131.808,388.800 131.167 C 388.800 130.525,388.620 130.000,388.400 130.000 C 388.180 130.000,388.000 129.645,388.000 129.212 C 388.000 128.779,387.640 127.783,387.200 127.000 C 386.760 126.217,386.400 125.221,386.400 124.788 C 386.400 124.355,386.220 124.000,386.000 124.000 C 385.780 124.000,385.600 123.640,385.600 123.200 C 385.600 122.760,385.420 122.400,385.200 122.400 C 384.980 122.400,384.800 121.860,384.800 121.200 C 384.800 120.540,384.620 120.000,384.400 120.000 C 384.180 120.000,384.000 119.640,384.000 119.200 C 384.000 118.760,383.820 118.400,383.600 118.400 C 383.380 118.400,383.200 118.040,383.200 117.600 C 383.200 117.160,383.020 116.800,382.800 116.800 C 382.580 116.800,382.400 116.440,382.400 116.000 C 382.400 115.560,382.220 115.200,382.000 115.200 C 381.780 115.200,381.600 114.840,381.600 114.400 C 381.600 113.960,381.420 113.600,381.200 113.600 C 380.980 113.600,380.800 113.150,380.800 112.600 C 380.800 112.050,380.620 111.600,380.400 111.600 C 380.180 111.600,380.000 111.240,380.000 110.800 C 380.000 110.360,379.820 110.000,379.600 110.000 C 379.380 110.000,379.200 109.680,379.200 109.288 C 379.200 108.897,378.840 108.317,378.400 108.000 C 377.960 107.683,377.600 107.103,377.600 106.712 C 377.600 106.320,377.420 106.000,377.200 106.000 C 376.980 106.000,376.800 105.640,376.800 105.200 C 376.800 104.760,376.620 104.400,376.400 104.400 C 376.180 104.400,376.000 104.040,376.000 103.600 C 376.000 103.160,375.820 102.800,375.600 102.800 C 375.380 102.800,375.200 102.440,375.200 102.000 C 375.200 101.560,375.020 101.200,374.800 101.200 C 374.580 101.200,374.436 101.065,374.479 100.900 C 374.623 100.354,373.953 98.800,373.573 98.800 C 373.368 98.800,373.200 98.440,373.200 98.000 C 373.200 97.560,373.020 97.200,372.800 97.200 C 372.580 97.200,372.400 96.952,372.400 96.649 C 372.400 96.346,372.127 95.871,371.793 95.594 C 371.459 95.317,370.883 94.440,370.513 93.645 C 370.143 92.850,369.517 91.909,369.120 91.553 C 368.724 91.197,368.400 90.652,368.400 90.341 C 368.400 90.031,368.040 89.517,367.600 89.200 C 367.160 88.883,366.800 88.343,366.800 88.000 C 366.800 87.657,366.440 87.117,366.000 86.800 C 365.560 86.483,365.200 85.975,365.200 85.672 C 365.200 85.369,364.660 84.617,364.000 84.000 C 363.340 83.383,362.800 82.663,362.800 82.400 C 362.800 82.137,362.260 81.417,361.600 80.800 C 360.940 80.183,360.400 79.473,360.400 79.221 C 360.400 78.970,359.950 78.314,359.400 77.764 C 358.850 77.214,358.400 76.578,358.400 76.350 C 358.400 76.123,357.680 75.246,356.800 74.400 C 355.920 73.554,355.200 72.665,355.200 72.423 C 355.200 72.181,354.210 70.993,353.000 69.783 C 351.790 68.573,350.800 67.409,350.800 67.196 C 350.800 66.983,348.891 64.936,346.559 62.646 C 341.439 57.619,342.381 58.561,337.354 53.441 C 335.064 51.109,333.017 49.200,332.804 49.200 C 332.591 49.200,331.427 48.210,330.217 47.000 C 329.007 45.790,327.788 44.796,327.509 44.791 C 327.229 44.787,326.462 44.157,325.804 43.391 C 325.146 42.626,324.363 42.000,324.064 42.000 C 323.765 42.000,323.017 41.460,322.400 40.800 C 321.783 40.140,321.063 39.600,320.800 39.600 C 320.537 39.600,319.817 39.060,319.200 38.400 C 318.583 37.740,317.863 37.200,317.600 37.200 C 317.337 37.200,316.617 36.660,316.000 36.000 C 315.383 35.340,314.631 34.800,314.328 34.800 C 314.025 34.800,313.517 34.440,313.200 34.000 C 312.883 33.560,312.343 33.200,312.000 33.200 C 311.657 33.200,311.117 32.840,310.800 32.400 C 310.483 31.960,309.969 31.600,309.659 31.600 C 309.348 31.600,308.803 31.276,308.447 30.880 C 308.091 30.483,307.150 29.857,306.355 29.487 C 305.560 29.117,304.683 28.541,304.406 28.207 C 304.129 27.873,303.654 27.600,303.351 27.600 C 303.048 27.600,302.800 27.420,302.800 27.200 C 302.800 26.980,302.440 26.800,302.000 26.800 C 301.560 26.800,301.200 26.632,301.200 26.427 C 301.200 26.047,299.646 25.377,299.100 25.521 C 298.935 25.564,298.800 25.420,298.800 25.200 C 298.800 24.980,298.440 24.800,298.000 24.800 C 297.560 24.800,297.200 24.620,297.200 24.400 C 297.200 24.180,296.840 24.000,296.400 24.000 C 295.960 24.000,295.600 23.820,295.600 23.600 C 295.600 23.380,295.240 23.200,294.800 23.200 C 294.360 23.200,294.000 23.020,294.000 22.800 C 294.000 22.580,293.680 22.400,293.288 22.400 C 292.897 22.400,292.317 22.040,292.000 21.600 C 291.683 21.160,291.103 20.800,290.712 20.800 C 290.320 20.800,290.000 20.620,290.000 20.400 C 290.000 20.180,289.640 20.000,289.200 20.000 C 288.760 20.000,288.400 19.820,288.400 19.600 C 288.400 19.380,287.950 19.200,287.400 19.200 C 286.850 19.200,286.400 19.020,286.400 18.800 C 286.400 18.580,286.040 18.400,285.600 18.400 C 285.160 18.400,284.800 18.220,284.800 18.000 C 284.800 17.780,284.440 17.600,284.000 17.600 C 283.560 17.600,283.200 17.420,283.200 17.200 C 283.200 16.980,282.840 16.800,282.400 16.800 C 281.960 16.800,281.600 16.620,281.600 16.400 C 281.600 16.180,281.240 16.000,280.800 16.000 C 280.360 16.000,280.000 15.820,280.000 15.600 C 280.000 15.380,279.460 15.200,278.800 15.200 C 278.140 15.200,277.600 15.020,277.600 14.800 C 277.600 14.580,277.240 14.400,276.800 14.400 C 276.360 14.400,276.000 14.220,276.000 14.000 C 276.000 13.780,275.645 13.600,275.212 13.600 C 274.779 13.600,273.783 13.240,273.000 12.800 C 272.217 12.360,271.221 12.000,270.788 12.000 C 270.355 12.000,270.000 11.820,270.000 11.600 C 270.000 11.380,269.475 11.200,268.833 11.200 C 268.192 11.200,267.607 11.065,267.533 10.900 C 267.329 10.440,260.745 8.385,259.500 8.393 C 258.895 8.397,258.400 8.220,258.400 8.000 C 258.400 7.780,257.860 7.600,257.200 7.600 C 256.540 7.600,256.000 7.420,256.000 7.200 C 256.000 6.980,255.280 6.800,254.400 6.800 C 253.520 6.800,252.800 6.620,252.800 6.400 C 252.800 6.180,252.271 6.000,251.624 6.000 C 250.977 6.000,250.336 5.820,250.200 5.600 C 250.064 5.380,249.254 5.200,248.400 5.200 C 247.546 5.200,246.736 5.020,246.600 4.800 C 246.464 4.580,245.643 4.400,244.776 4.400 C 243.909 4.400,243.200 4.220,243.200 4.000 C 243.200 3.780,242.390 3.600,241.400 3.600 C 240.410 3.600,239.600 3.420,239.600 3.200 C 239.600 2.980,238.700 2.800,237.600 2.800 C 236.500 2.800,235.600 2.620,235.600 2.400 C 235.600 2.178,234.533 2.000,233.200 2.000 C 231.867 2.000,230.800 1.822,230.800 1.600 C 230.800 1.372,229.611 1.200,228.033 1.200 C 226.198 1.200,225.211 1.034,225.103 0.708 C 224.941 0.222,187.291 -0.126,178.300 0.275 M113.501 190.777 C 113.581 242.790,113.707 256.621,114.101 256.871 C 114.376 257.045,130.106 257.191,149.057 257.194 C 180.105 257.199,183.538 257.263,183.757 257.833 C 184.363 259.410,184.017 273.508,183.367 273.757 C 182.540 274.075,95.060 274.075,94.233 273.757 C 93.568 273.502,93.211 125.723,93.874 125.060 C 94.024 124.909,98.479 124.834,103.774 124.893 L 113.400 125.000 113.501 190.777 M262.036 125.202 C 269.196 126.058,272.214 126.532,272.580 126.860 C 272.789 127.047,273.466 127.200,274.085 127.200 C 274.704 127.200,275.523 127.362,275.905 127.561 C 276.287 127.760,277.410 128.151,278.400 128.432 C 289.412 131.551,298.408 140.506,301.536 151.463 C 306.764 169.776,300.721 185.168,284.792 194.115 C 282.382 195.469,282.427 195.645,285.505 196.892 C 292.408 199.691,303.200 209.510,303.200 212.992 C 303.200 213.093,303.678 214.217,304.261 215.488 C 306.405 220.159,306.977 223.547,306.946 231.400 C 306.904 242.070,304.970 249.126,300.258 255.800 C 295.575 262.434,286.605 268.826,279.200 270.807 C 278.210 271.071,277.040 271.435,276.600 271.614 C 274.898 272.307,270.280 273.091,265.000 273.583 C 258.720 274.167,206.672 274.112,206.080 273.520 C 205.441 272.881,205.376 126.765,206.014 125.574 C 206.490 124.685,255.017 124.363,262.036 125.202 M226.397 141.933 C 226.141 142.019,226.000 150.197,226.000 165.033 L 226.000 188.000 242.500 188.000 C 263.394 188.000,267.278 187.392,273.487 183.149 C 275.319 181.897,279.178 178.096,279.193 177.529 C 279.197 177.379,279.425 177.019,279.700 176.729 C 283.345 172.875,283.863 160.105,280.641 153.519 C 278.841 149.841,273.558 144.800,271.502 144.800 C 271.204 144.800,270.789 144.651,270.580 144.470 C 270.209 144.147,269.084 143.806,265.000 142.777 C 263.638 142.434,258.409 142.228,248.600 142.132 C 240.680 142.054,232.534 141.947,230.497 141.895 C 228.460 141.843,226.615 141.860,226.397 141.933 M226.097 230.900 L 226.200 257.000 245.200 256.993 C 268.596 256.985,272.333 256.218,279.302 249.989 C 290.049 240.386,289.197 217.729,277.800 210.040 C 270.710 205.257,267.717 204.803,243.297 204.801 L 225.994 204.800 226.097 230.900 " stroke="none" fill="#737cdc" fill-rule="evenodd"></path><path id="path2" d="M258.100 125.476 C 258.485 125.576,259.115 125.576,259.500 125.476 C 259.885 125.375,259.570 125.293,258.800 125.293 C 258.030 125.293,257.715 125.375,258.100 125.476 M113.395 191.600 C 113.395 227.570,113.442 242.285,113.500 224.300 C 113.558 206.315,113.558 176.885,113.500 158.900 C 113.442 140.915,113.395 155.630,113.395 191.600 M93.796 199.600 C 93.796 239.750,93.843 256.175,93.900 236.100 C 93.957 216.025,93.957 183.175,93.900 163.100 C 93.843 143.025,93.796 159.450,93.796 199.600 M235.126 204.300 C 239.376 204.364,246.216 204.364,250.326 204.299 C 254.437 204.234,250.960 204.181,242.600 204.181 C 234.240 204.182,230.877 204.235,235.126 204.300 M306.942 231.800 C 306.941 233.780,307.008 234.640,307.092 233.712 C 307.176 232.784,307.177 231.164,307.095 230.112 C 307.012 229.060,306.943 229.820,306.942 231.800 " stroke="none" fill="#aeb4ec" fill-rule="evenodd"></path><path id="path3" d="M93.788 125.220 C 93.640 125.458,93.628 125.761,93.760 125.893 C 93.892 126.025,94.000 125.923,94.000 125.667 C 94.000 125.051,113.032 124.995,113.337 125.610 C 113.449 125.836,113.494 125.791,113.437 125.510 C 113.300 124.832,94.202 124.550,93.788 125.220 M206.262 125.100 C 206.160 125.265,218.975 125.400,234.738 125.400 C 250.502 125.400,262.500 125.281,261.400 125.135 C 258.608 124.765,206.489 124.732,206.262 125.100 M264.033 125.745 C 264.125 125.825,265.460 125.989,267.000 126.109 C 268.698 126.241,269.328 126.202,268.600 126.011 C 267.384 125.691,263.727 125.478,264.033 125.745 M205.698 199.420 C 205.622 256.257,205.709 273.149,206.080 273.520 C 206.446 273.886,213.212 273.977,234.580 273.904 L 262.600 273.808 234.400 273.604 L 206.200 273.400 205.998 199.600 L 205.797 125.800 205.698 199.420 M271.400 126.800 C 272.501 127.273,272.892 127.273,272.600 126.800 C 272.464 126.580,271.958 126.413,271.476 126.428 C 270.631 126.455,270.629 126.469,271.400 126.800 M286.400 132.124 C 286.400 132.217,287.165 132.798,288.100 133.415 C 289.035 134.032,289.589 134.280,289.331 133.968 C 288.834 133.367,286.400 131.836,286.400 132.124 M295.775 140.532 C 296.391 141.339,296.976 142.000,297.075 142.000 C 297.353 142.000,295.621 139.660,295.109 139.344 C 294.859 139.189,295.159 139.724,295.775 140.532 M228.800 141.856 C 231.667 142.104,263.306 142.190,261.000 141.943 C 259.680 141.802,251.580 141.698,243.000 141.711 C 234.420 141.724,228.030 141.789,228.800 141.856 M225.795 165.300 L 225.800 188.200 242.600 188.207 L 259.400 188.213 242.703 188.102 L 226.007 187.991 225.898 165.196 L 225.790 142.400 225.795 165.300 M264.600 142.790 C 265.364 143.128,267.914 143.357,267.567 143.056 C 267.475 142.976,266.590 142.804,265.600 142.673 C 264.398 142.514,264.066 142.553,264.600 142.790 M297.560 143.000 C 298.234 144.305,298.788 145.028,298.785 144.600 C 298.783 144.380,298.414 143.750,297.964 143.200 C 297.421 142.536,297.285 142.469,297.560 143.000 M277.582 149.000 C 278.547 150.100,279.420 151.090,279.522 151.200 C 279.625 151.310,279.519 151.040,279.287 150.600 C 279.055 150.160,278.182 149.170,277.347 148.400 C 275.903 147.069,275.915 147.099,277.582 149.000 M301.668 152.600 C 301.662 153.040,301.811 153.760,302.000 154.200 C 302.438 155.219,302.438 154.168,302.000 152.800 C 301.743 151.996,301.677 151.957,301.668 152.600 M302.487 157.600 C 302.483 158.150,302.624 159.050,302.800 159.600 C 303.231 160.944,303.231 159.492,302.800 157.800 C 302.526 156.722,302.494 156.702,302.487 157.600 M282.056 157.600 C 282.056 157.930,282.211 158.560,282.400 159.000 C 282.617 159.504,282.744 159.578,282.744 159.200 C 282.744 158.870,282.589 158.240,282.400 157.800 C 282.183 157.296,282.056 157.222,282.056 157.600 M282.914 164.600 C 282.917 165.700,282.995 166.103,283.087 165.495 C 283.179 164.886,283.177 163.986,283.082 163.495 C 282.987 163.003,282.911 163.500,282.914 164.600 M302.854 168.400 C 302.819 168.950,302.696 169.850,302.583 170.400 L 302.377 171.400 302.807 170.415 C 303.043 169.874,303.165 168.974,303.078 168.415 L 302.920 167.400 302.854 168.400 M279.600 176.786 C 279.600 176.998,279.019 177.853,278.309 178.686 C 277.556 179.570,277.407 179.867,277.953 179.400 C 279.233 178.303,280.549 176.400,280.027 176.400 C 279.792 176.400,279.600 176.574,279.600 176.786 M290.971 189.703 L 289.800 190.997 291.000 189.999 C 291.660 189.449,292.275 188.955,292.367 188.900 C 292.458 188.845,292.445 188.712,292.338 188.604 C 292.230 188.496,291.615 188.991,290.971 189.703 M283.400 194.478 C 282.568 194.950,281.946 195.679,282.177 195.911 C 282.251 195.984,282.807 195.584,283.414 195.022 C 284.620 193.904,284.617 193.788,283.400 194.478 M288.800 198.579 C 288.800 198.689,289.340 199.059,290.000 199.400 C 290.660 199.741,291.200 199.931,291.200 199.821 C 291.200 199.711,290.660 199.341,290.000 199.000 C 289.340 198.659,288.800 198.469,288.800 198.579 M291.600 200.093 C 291.600 200.174,292.905 201.280,294.500 202.551 C 296.226 203.927,296.671 204.193,295.600 203.209 C 293.742 201.502,291.600 199.834,291.600 200.093 M234.500 204.700 C 239.285 204.763,247.115 204.763,251.900 204.700 C 256.685 204.636,252.770 204.584,243.200 204.584 C 233.630 204.584,229.715 204.636,234.500 204.700 M262.033 204.945 C 262.125 205.025,263.460 205.189,265.000 205.309 C 266.698 205.441,267.328 205.402,266.600 205.211 C 265.384 204.891,261.727 204.678,262.033 204.945 M225.696 230.820 C 225.623 250.477,225.715 256.755,226.080 257.120 C 226.605 257.645,254.714 257.757,261.200 257.260 C 263.070 257.117,255.960 257.000,245.400 257.000 L 226.200 257.000 225.996 231.000 L 225.791 205.000 225.696 230.820 M269.000 206.000 C 269.440 206.189,270.160 206.338,270.600 206.332 C 271.243 206.323,271.204 206.257,270.400 206.000 C 269.032 205.562,267.981 205.562,269.000 206.000 M298.000 206.125 C 298.000 206.194,298.585 206.779,299.300 207.425 L 300.600 208.600 299.425 207.300 C 298.330 206.088,298.000 205.816,298.000 206.125 M278.800 210.511 C 278.800 210.587,279.385 211.078,280.100 211.601 C 280.904 212.190,281.184 212.287,280.833 211.855 C 280.300 211.199,278.800 210.207,278.800 210.511 M283.882 216.989 C 284.473 218.193,285.023 219.111,285.105 219.029 C 285.284 218.849,283.267 214.800,282.998 214.800 C 282.894 214.800,283.292 215.785,283.882 216.989 M306.693 225.800 C 306.813 227.120,306.976 228.275,307.055 228.367 C 307.351 228.707,307.131 224.970,306.810 224.200 C 306.608 223.717,306.562 224.351,306.693 225.800 M286.514 225.800 C 286.517 226.900,286.595 227.303,286.687 226.695 C 286.779 226.086,286.777 225.186,286.682 224.695 C 286.587 224.203,286.511 224.700,286.514 225.800 M286.914 230.600 C 286.917 231.700,286.995 232.103,287.087 231.495 C 287.179 230.886,287.177 229.986,287.082 229.495 C 286.987 229.003,286.911 229.500,286.914 230.600 M286.520 235.600 C 286.520 236.810,286.595 237.305,286.687 236.700 C 286.778 236.095,286.778 235.105,286.687 234.500 C 286.595 233.895,286.520 234.390,286.520 235.600 M306.864 236.267 C 306.829 236.964,306.696 237.864,306.570 238.267 C 306.353 238.959,306.365 238.960,306.794 238.291 C 307.045 237.902,307.177 237.002,307.089 236.291 L 306.928 235.000 306.864 236.267 M285.849 238.615 C 285.712 238.973,285.615 239.566,285.634 239.933 C 285.653 240.300,285.827 240.069,286.021 239.420 C 286.398 238.158,286.265 237.533,285.849 238.615 M305.829 242.229 C 305.681 242.815,305.638 243.372,305.732 243.466 C 305.827 243.560,306.024 243.158,306.171 242.571 C 306.319 241.985,306.362 241.428,306.268 241.334 C 306.173 241.240,305.976 241.642,305.829 242.229 M280.181 249.300 L 278.600 251.000 280.300 249.419 C 281.881 247.948,282.184 247.600,281.881 247.600 C 281.816 247.600,281.051 248.365,280.181 249.300 M274.000 253.600 C 273.230 254.022,272.744 254.374,272.920 254.383 C 273.344 254.405,275.600 253.232,275.600 252.990 C 275.600 252.728,275.577 252.737,274.000 253.600 M300.253 255.191 C 299.674 256.067,299.200 256.917,299.200 257.080 C 299.200 257.244,299.442 257.023,299.739 256.589 C 301.041 254.681,301.678 253.600,301.499 253.600 C 301.393 253.600,300.832 254.316,300.253 255.191 M113.862 257.300 C 113.964 257.465,129.742 257.558,148.924 257.507 C 168.106 257.456,179.390 257.367,174.000 257.308 C 148.799 257.035,113.695 257.030,113.862 257.300 M183.768 265.800 C 183.768 270.200,183.826 272.055,183.898 269.921 C 183.970 267.788,183.970 264.188,183.899 261.921 C 183.827 259.655,183.768 261.400,183.768 265.800 M293.775 262.500 L 292.600 263.800 293.900 262.625 C 294.615 261.979,295.200 261.394,295.200 261.325 C 295.200 261.016,294.870 261.288,293.775 262.500 M291.000 264.650 C 290.281 265.262,290.134 265.505,290.633 265.257 C 291.366 264.893,292.741 263.576,292.349 263.614 C 292.267 263.622,291.660 264.088,291.000 264.650 M266.800 273.200 L 265.400 273.495 266.800 273.519 C 267.570 273.533,268.560 273.389,269.000 273.200 L 269.800 272.856 269.000 272.881 C 268.560 272.894,267.570 273.038,266.800 273.200 M116.500 273.900 C 128.765 273.959,148.835 273.959,161.100 273.900 C 173.365 273.841,163.330 273.793,138.800 273.793 C 114.270 273.793,104.235 273.841,116.500 273.900 " stroke="none" fill="#a2a9ea" fill-rule="evenodd"></path><path id="path4" d="M94.080 125.680 C 93.816 125.944,93.605 126.349,93.612 126.580 C 93.619 126.811,93.808 126.685,94.032 126.300 C 94.556 125.400,112.210 125.216,113.201 126.100 C 113.678 126.525,113.682 126.496,113.232 125.900 C 112.564 125.018,94.944 124.816,94.080 125.680 M208.000 125.463 C 208.990 125.528,221.860 125.630,236.600 125.691 C 251.340 125.751,261.870 125.683,260.000 125.540 C 258.130 125.397,245.260 125.294,231.400 125.312 C 217.540 125.330,207.010 125.398,208.000 125.463 M206.198 199.700 L 206.200 273.400 235.500 273.404 L 264.800 273.408 235.601 273.301 L 206.402 273.195 206.299 199.597 L 206.197 126.000 206.198 199.700 M265.400 126.418 C 266.500 126.590,268.120 126.720,269.000 126.709 C 270.393 126.690,270.316 126.648,268.400 126.383 C 267.190 126.216,265.570 126.085,264.800 126.093 C 263.678 126.104,263.797 126.169,265.400 126.418 M271.400 127.181 C 272.168 127.529,274.310 127.756,273.967 127.453 C 273.875 127.372,273.080 127.196,272.200 127.062 C 271.085 126.893,270.842 126.929,271.400 127.181 M274.800 127.982 C 275.130 128.205,275.745 128.391,276.167 128.394 C 277.190 128.402,276.871 128.173,275.400 127.844 C 274.524 127.648,274.362 127.685,274.800 127.982 M280.800 130.000 C 281.570 130.422,282.380 130.766,282.600 130.766 C 282.820 130.766,282.370 130.422,281.600 130.000 C 280.830 129.578,280.020 129.234,279.800 129.234 C 279.580 129.234,280.030 129.578,280.800 130.000 M285.600 132.100 C 285.710 132.224,286.788 132.989,287.996 133.800 C 289.204 134.611,289.883 134.934,289.505 134.517 C 289.128 134.099,288.050 133.334,287.109 132.816 C 286.169 132.299,285.490 131.976,285.600 132.100 M292.989 137.923 C 294.523 139.505,295.849 140.800,295.936 140.800 C 296.234 140.800,293.396 137.796,291.800 136.423 C 290.920 135.666,291.455 136.341,292.989 137.923 M225.861 141.500 C 225.692 141.773,238.516 141.767,253.800 141.487 C 257.100 141.427,252.206 141.338,242.924 141.289 C 233.642 141.240,225.964 141.335,225.861 141.500 M263.633 142.144 C 263.725 142.224,264.610 142.396,265.600 142.527 C 266.802 142.686,267.134 142.647,266.600 142.410 C 265.836 142.072,263.286 141.843,263.633 142.144 M225.291 165.076 C 225.241 177.658,225.335 188.036,225.500 188.138 C 225.772 188.307,225.768 171.562,225.490 150.400 C 225.431 145.890,225.342 152.494,225.291 165.076 M274.800 146.069 C 274.910 146.167,276.080 147.221,277.400 148.411 L 279.800 150.575 278.000 148.657 C 277.010 147.602,275.840 146.548,275.400 146.315 C 274.960 146.082,274.690 145.972,274.800 146.069 M279.615 151.000 C 279.617 151.220,279.986 151.850,280.436 152.400 C 280.979 153.064,281.115 153.131,280.840 152.600 C 280.166 151.295,279.612 150.572,279.615 151.000 M301.044 151.800 C 301.373 153.271,301.602 153.590,301.594 152.567 C 301.591 152.145,301.405 151.530,301.182 151.200 C 300.885 150.762,300.848 150.924,301.044 151.800 M301.888 156.000 C 302.011 157.210,302.177 158.275,302.256 158.367 C 302.553 158.711,302.330 155.367,302.004 154.600 C 301.792 154.102,301.749 154.631,301.888 156.000 M282.068 155.800 C 282.062 156.240,282.211 156.960,282.400 157.400 C 282.838 158.419,282.838 157.368,282.400 156.000 C 282.143 155.196,282.077 155.157,282.068 155.800 M282.901 159.800 C 282.905 160.680,282.987 160.993,283.083 160.495 C 283.179 159.998,283.175 159.278,283.075 158.895 C 282.975 158.513,282.896 158.920,282.901 159.800 M302.581 164.200 C 302.589 168.707,302.635 169.072,302.925 166.939 C 303.109 165.586,303.105 163.246,302.916 161.739 C 302.603 159.246,302.573 159.467,302.581 164.200 M283.331 164.600 C 283.333 166.140,283.405 166.721,283.492 165.891 C 283.579 165.061,283.577 163.801,283.489 163.091 C 283.400 162.381,283.329 163.060,283.331 164.600 M282.864 169.067 C 282.829 169.764,282.696 170.664,282.570 171.067 C 282.353 171.759,282.365 171.760,282.794 171.091 C 283.045 170.702,283.177 169.802,283.089 169.091 L 282.928 167.800 282.864 169.067 M302.049 171.000 C 302.016 171.440,301.896 172.250,301.783 172.800 L 301.577 173.800 302.006 172.819 C 302.242 172.279,302.361 171.469,302.272 171.019 C 302.113 170.221,302.107 170.221,302.049 171.000 M279.853 177.191 C 279.274 178.067,278.800 178.917,278.800 179.080 C 278.800 179.244,279.042 179.023,279.339 178.589 C 280.641 176.681,281.278 175.600,281.099 175.600 C 280.993 175.600,280.432 176.316,279.853 177.191 M298.986 179.700 L 298.352 181.000 299.167 180.000 C 299.952 179.037,300.208 178.400,299.810 178.400 C 299.706 178.400,299.335 178.985,298.986 179.700 M276.364 181.182 C 275.354 182.182,273.378 183.675,271.973 184.500 C 270.568 185.325,269.624 186.000,269.876 186.000 C 270.571 186.000,276.044 182.231,277.371 180.837 C 279.230 178.886,278.393 179.172,276.364 181.182 M265.000 187.200 C 264.496 187.417,264.422 187.544,264.800 187.544 C 265.130 187.544,265.760 187.389,266.200 187.200 C 266.704 186.983,266.778 186.856,266.400 186.856 C 266.070 186.856,265.440 187.011,265.000 187.200 M291.400 188.716 C 290.520 189.539,289.260 190.624,288.600 191.128 C 287.940 191.632,287.760 191.871,288.200 191.659 C 289.178 191.188,293.775 187.196,293.323 187.210 C 293.145 187.216,292.280 187.893,291.400 188.716 M261.000 188.000 C 259.893 188.282,259.877 188.309,260.800 188.347 C 261.350 188.369,262.070 188.213,262.400 188.000 C 263.081 187.560,262.729 187.560,261.000 188.000 M234.100 188.700 C 238.445 188.764,245.555 188.764,249.900 188.700 C 254.245 188.635,250.690 188.582,242.000 188.582 C 233.310 188.582,229.755 188.635,234.100 188.700 M282.600 194.600 C 281.399 195.597,281.854 196.870,283.376 196.773 C 283.609 196.758,283.395 196.551,282.900 196.312 C 281.697 195.732,281.762 195.431,283.300 194.446 C 284.015 193.988,284.420 193.611,284.200 193.609 C 283.980 193.606,283.260 194.052,282.600 194.600 M284.033 196.935 C 284.419 197.247,287.600 198.377,287.600 198.202 C 287.600 197.963,284.851 196.800,284.284 196.800 C 284.055 196.800,283.942 196.861,284.033 196.935 M288.000 198.579 C 288.000 198.689,288.540 199.059,289.200 199.400 C 289.860 199.741,290.400 199.931,290.400 199.821 C 290.400 199.711,289.860 199.341,289.200 199.000 C 288.540 198.659,288.000 198.469,288.000 198.579 M291.000 200.280 C 291.220 200.488,292.210 201.246,293.200 201.965 L 295.000 203.272 293.600 202.008 C 292.374 200.901,289.956 199.294,291.000 200.280 M259.800 204.415 C 261.120 204.579,263.010 204.706,264.000 204.698 C 265.635 204.684,265.580 204.655,263.400 204.385 C 262.080 204.221,260.190 204.094,259.200 204.102 C 257.565 204.116,257.620 204.145,259.800 204.415 M267.200 205.200 C 267.750 205.376,268.560 205.520,269.000 205.520 C 269.633 205.520,269.592 205.454,268.800 205.200 C 268.250 205.024,267.440 204.880,267.000 204.880 C 266.367 204.880,266.408 204.946,267.200 205.200 M225.294 230.726 C 225.231 247.873,225.338 256.711,225.614 257.226 C 226.043 258.028,255.900 258.394,261.400 257.665 C 262.500 257.519,254.985 257.460,244.700 257.534 C 234.415 257.608,225.958 257.608,225.907 257.534 C 225.856 257.460,225.719 245.610,225.602 231.200 L 225.389 205.000 225.294 230.726 M271.800 206.371 C 272.900 206.813,274.322 207.476,274.959 207.845 C 275.597 208.213,276.004 208.330,275.864 208.104 C 275.532 207.566,272.402 206.102,270.944 205.803 C 270.315 205.673,270.700 205.929,271.800 206.371 M297.600 206.125 C 297.600 206.194,298.185 206.779,298.900 207.425 L 300.200 208.600 299.025 207.300 C 297.930 206.088,297.600 205.816,297.600 206.125 M276.433 208.530 C 276.525 208.601,277.230 209.066,278.000 209.563 L 279.400 210.466 278.200 209.435 C 277.540 208.868,276.835 208.403,276.633 208.402 C 276.432 208.401,276.342 208.458,276.433 208.530 M300.830 210.200 C 301.324 211.080,301.900 211.980,302.110 212.200 C 302.709 212.828,301.339 210.294,300.596 209.400 C 300.230 208.960,300.335 209.320,300.830 210.200 M279.600 210.525 C 279.600 210.594,280.185 211.179,280.900 211.825 L 282.200 213.000 281.025 211.700 C 279.930 210.488,279.600 210.216,279.600 210.525 M282.469 213.807 C 282.837 214.243,283.782 215.945,284.569 217.589 C 285.356 219.233,286.000 220.353,286.000 220.079 C 286.000 219.229,283.308 214.186,282.534 213.584 C 281.836 213.042,281.833 213.053,282.469 213.807 M305.268 220.200 C 305.262 220.640,305.411 221.360,305.600 221.800 C 306.038 222.819,306.038 221.768,305.600 220.400 C 305.343 219.596,305.277 219.557,305.268 220.200 M286.056 221.600 C 286.056 221.930,286.211 222.560,286.400 223.000 C 286.617 223.504,286.744 223.578,286.744 223.200 C 286.744 222.870,286.589 222.240,286.400 221.800 C 286.183 221.296,286.056 221.222,286.056 221.600 M286.994 230.842 C 286.991 234.553,287.098 236.285,287.265 235.200 C 287.623 232.864,287.629 228.223,287.277 226.242 C 287.118 225.349,286.998 227.310,286.994 230.842 M306.509 227.200 C 306.509 228.190,306.587 228.595,306.682 228.100 C 306.778 227.605,306.778 226.795,306.682 226.300 C 306.587 225.805,306.509 226.210,306.509 227.200 M306.200 237.600 C 306.044 238.947,306.001 240.134,306.105 240.238 C 306.209 240.342,306.419 239.322,306.571 237.971 C 306.724 236.621,306.767 235.434,306.667 235.333 C 306.566 235.233,306.356 236.253,306.200 237.600 M281.375 248.500 L 280.200 249.800 281.500 248.625 C 282.215 247.979,282.800 247.394,282.800 247.325 C 282.800 247.016,282.470 247.288,281.375 248.500 M299.885 255.058 C 299.057 256.269,298.562 257.147,298.785 257.009 C 299.323 256.677,301.717 253.184,301.533 253.000 C 301.454 252.921,300.712 253.847,299.885 255.058 M266.400 256.800 C 265.576 257.064,265.541 257.126,266.200 257.154 C 266.640 257.173,267.270 257.013,267.600 256.800 C 268.301 256.347,267.814 256.347,266.400 256.800 M113.283 257.200 C 113.444 257.725,117.824 257.825,148.495 258.000 C 167.761 258.110,183.440 258.065,183.338 257.900 C 183.236 257.735,167.629 257.600,148.656 257.600 C 121.609 257.600,114.046 257.492,113.630 257.100 C 113.202 256.696,113.135 256.716,113.283 257.200 M295.389 260.500 L 292.600 263.400 295.500 260.611 C 298.194 258.020,298.583 257.600,298.289 257.600 C 298.228 257.600,296.923 258.905,295.389 260.500 M290.288 264.584 C 287.811 266.277,287.365 266.792,289.400 265.609 C 290.810 264.790,292.897 263.134,292.389 263.239 C 292.285 263.260,291.339 263.866,290.288 264.584 M279.000 270.214 C 278.000 270.696,277.966 270.751,278.800 270.548 C 279.933 270.271,281.207 269.621,280.600 269.630 C 280.380 269.633,279.660 269.896,279.000 270.214 M275.600 271.218 C 275.162 271.515,275.324 271.552,276.200 271.356 C 277.671 271.027,277.990 270.798,276.967 270.806 C 276.545 270.809,275.930 270.995,275.600 271.218 M93.703 272.800 C 93.847 273.329,99.204 273.400,138.833 273.403 L 183.800 273.405 139.023 273.301 C 103.836 273.219,94.169 273.090,93.892 272.698 C 93.632 272.331,93.582 272.358,93.703 272.800 M269.105 272.683 C 269.602 272.779,270.322 272.775,270.705 272.675 C 271.087 272.575,270.680 272.496,269.800 272.501 C 268.920 272.505,268.607 272.587,269.105 272.683 M265.700 273.076 C 266.085 273.176,266.715 273.176,267.100 273.076 C 267.485 272.975,267.170 272.893,266.400 272.893 C 265.630 272.893,265.315 272.975,265.700 273.076 " stroke="none" fill="#bcbcec" fill-rule="evenodd"></path></g></svg>